<svg width="60" height="61" viewBox="0 0 60 61" fill="none" xmlns="http://www.w3.org/2000/svg">
<rect y="0.770508" width="60" height="60" rx="10" fill="#9CFF01"/>
<mask id="mask0_1_3314" style="mask-type:luminance" maskUnits="userSpaceOnUse" x="15" y="16" width="30" height="30">
<path d="M44.5161 16.2573H15.4839V45.2896H44.5161V16.2573Z" fill="white"/>
</mask>
<g mask="url(#mask0_1_3314)">
<path d="M30.0001 16.4844C23.8719 16.4844 18.8862 21.47 18.8862 27.5983C18.8862 30.5753 20.6898 34.3981 24.2468 38.9605C25.8765 41.0453 27.6413 43.0208 29.5298 44.8743C29.6565 44.9954 29.8249 45.063 30.0001 45.063C30.1754 45.063 30.3438 44.9954 30.4705 44.8743C32.359 43.0208 34.1238 41.0453 35.7535 38.9605C39.3105 34.3981 41.1141 30.5753 41.1141 27.5983C41.1141 21.47 36.1284 16.4844 30.0001 16.4844ZM30.0001 43.4249C27.9918 41.4004 20.2471 33.2272 20.2471 27.5983C20.2471 22.2205 24.6223 17.8453 30.0001 17.8453C35.378 17.8453 39.7531 22.2205 39.7531 27.5983C39.7531 33.2272 32.0085 41.4004 30.0001 43.4249Z" fill="black"/>
<path d="M35.4476 26.641L30.4576 22.1047C30.3324 21.9908 30.1692 21.9277 30 21.9277C29.8307 21.9277 29.6674 21.9908 29.5422 22.1047L24.5523 26.641C24.4507 26.7333 24.3794 26.8543 24.3478 26.988C24.3162 27.1216 24.3259 27.2617 24.3754 27.3899C24.4249 27.5179 24.512 27.628 24.6253 27.7056C24.7386 27.7833 24.8727 27.8249 25.01 27.8249H25.6905V31.2272C25.6905 31.4075 25.7621 31.5807 25.8898 31.7082C26.0174 31.8359 26.1904 31.9076 26.3709 31.9076H28.8659C29.0463 31.9076 29.2194 31.8359 29.347 31.7082C29.4746 31.5807 29.5463 31.4075 29.5463 31.2272V29.1858H30.4535V31.2272C30.4535 31.4075 30.5252 31.5807 30.6529 31.7082C30.7804 31.8359 30.9536 31.9076 31.134 31.9076H33.629C33.8095 31.9076 33.9825 31.8359 34.1101 31.7082C34.2377 31.5807 34.3094 31.4075 34.3094 31.2272V27.8249H34.9898C35.1271 27.8249 35.2613 27.7833 35.3746 27.7056C35.4878 27.628 35.575 27.5179 35.6245 27.3899C35.674 27.2617 35.6836 27.1216 35.6521 26.988C35.6205 26.8543 35.5492 26.7333 35.4476 26.641ZM32.9486 27.1444V30.5466H31.8145V28.5054C31.8145 28.3249 31.7428 28.1518 31.6151 28.0242C31.4876 27.8966 31.3144 27.8249 31.134 27.8249H28.8659C28.6854 27.8249 28.5123 27.8966 28.3847 28.0242C28.2571 28.1518 28.1854 28.3249 28.1854 28.5054V30.5466H27.0513V27.1444C27.0513 27.02 27.0173 26.898 26.9527 26.7915C26.8883 26.6852 26.7958 26.5984 26.6854 26.5409L30 23.5277L33.3145 26.5409C33.204 26.5984 33.1116 26.6852 33.0471 26.7915C32.9826 26.898 32.9485 27.02 32.9486 27.1444Z" fill="black"/>
</g>
</svg>
