<svg width="154" height="145" viewBox="0 0 154 145" fill="none" xmlns="http://www.w3.org/2000/svg">
<rect width="154" height="145" rx="40" fill="#F5F5F5"/>
<path d="M30.3955 66.8828C30.8174 66.0391 32.0127 66.0742 32.3994 66.8828L34.7197 71.5586L39.8525 72.2969C40.7666 72.4375 41.1182 73.5625 40.4502 74.2305L36.7588 77.8516L37.6377 82.9492C37.7783 83.8633 36.7939 84.5664 35.9854 84.1445L31.415 81.7188L26.8096 84.1445C26.001 84.5664 25.0166 83.8633 25.1572 82.9492L26.0361 77.8516L22.3447 74.2305C21.6768 73.5625 22.0283 72.4375 22.9424 72.2969L28.1104 71.5586L30.3955 66.8828Z" fill="#9CFF01"/>
<path d="M53.3955 66.8828C53.8174 66.0391 55.0127 66.0742 55.3994 66.8828L57.7197 71.5586L62.8525 72.2969C63.7666 72.4375 64.1182 73.5625 63.4502 74.2305L59.7588 77.8516L60.6377 82.9492C60.7783 83.8633 59.7939 84.5664 58.9854 84.1445L54.415 81.7188L49.8096 84.1445C49.001 84.5664 48.0166 83.8633 48.1572 82.9492L49.0361 77.8516L45.3447 74.2305C44.6768 73.5625 45.0283 72.4375 45.9424 72.2969L51.1104 71.5586L53.3955 66.8828Z" fill="#9CFF01"/>
<path d="M76.3955 66.8828C76.8174 66.0391 78.0127 66.0742 78.3994 66.8828L80.7197 71.5586L85.8525 72.2969C86.7666 72.4375 87.1182 73.5625 86.4502 74.2305L82.7588 77.8516L83.6377 82.9492C83.7783 83.8633 82.7939 84.5664 81.9854 84.1445L77.415 81.7188L72.8096 84.1445C72.001 84.5664 71.0166 83.8633 71.1572 82.9492L72.0361 77.8516L68.3447 74.2305C67.6768 73.5625 68.0283 72.4375 68.9424 72.2969L74.1104 71.5586L76.3955 66.8828Z" fill="#9CFF01"/>
<path d="M99.3955 66.8828C99.8174 66.0391 101.013 66.0742 101.399 66.8828L103.72 71.5586L108.853 72.2969C109.767 72.4375 110.118 73.5625 109.45 74.2305L105.759 77.8516L106.638 82.9492C106.778 83.8633 105.794 84.5664 104.985 84.1445L100.415 81.7188L95.8096 84.1445C95.001 84.5664 94.0166 83.8633 94.1572 82.9492L95.0361 77.8516L91.3447 74.2305C90.6768 73.5625 91.0283 72.4375 91.9424 72.2969L97.1104 71.5586L99.3955 66.8828Z" fill="#9CFF01"/>
<path d="M122.396 66.8828C122.817 66.0391 124.013 66.0742 124.399 66.8828L126.72 71.5586L131.853 72.2969C132.767 72.4375 133.118 73.5625 132.45 74.2305L128.759 77.8516L129.638 82.9492C129.778 83.8633 128.794 84.5664 127.985 84.1445L123.415 81.7188L118.81 84.1445C118.001 84.5664 117.017 83.8633 117.157 82.9492L118.036 77.8516L114.345 74.2305C113.677 73.5625 114.028 72.4375 114.942 72.2969L120.11 71.5586L122.396 66.8828Z" fill="#9CFF01"/>
<path d="M54.887 118.18V106.66H59.335C59.447 106.66 59.5723 106.665 59.711 106.676C59.855 106.681 59.999 106.697 60.143 106.724C60.7456 106.815 61.255 107.025 61.671 107.356C62.0923 107.681 62.4096 108.092 62.623 108.588C62.8416 109.084 62.951 109.633 62.951 110.236C62.951 111.105 62.7216 111.86 62.263 112.5C61.8043 113.14 61.1483 113.543 60.295 113.708L59.887 113.804H56.063V118.18H54.887ZM61.863 118.18L59.591 113.492L60.719 113.06L63.215 118.18H61.863ZM56.063 112.684H59.303C59.399 112.684 59.511 112.679 59.639 112.668C59.767 112.657 59.8923 112.639 60.015 112.612C60.4096 112.527 60.7323 112.364 60.983 112.124C61.239 111.884 61.4283 111.599 61.551 111.268C61.679 110.937 61.743 110.593 61.743 110.236C61.743 109.879 61.679 109.535 61.551 109.204C61.4283 108.868 61.239 108.58 60.983 108.34C60.7323 108.1 60.4096 107.937 60.015 107.852C59.8923 107.825 59.767 107.809 59.639 107.804C59.511 107.793 59.399 107.788 59.303 107.788H56.063V112.684ZM67.2927 118.42C66.642 118.42 66.0954 118.303 65.6527 118.068C65.2154 117.833 64.8874 117.521 64.6687 117.132C64.45 116.743 64.3407 116.319 64.3407 115.86C64.3407 115.391 64.434 114.991 64.6207 114.66C64.8127 114.324 65.0714 114.049 65.3967 113.836C65.7274 113.623 66.1087 113.46 66.5407 113.348C66.978 113.241 67.4607 113.148 67.9887 113.068C68.522 112.983 69.042 112.911 69.5487 112.852C70.0607 112.788 70.5087 112.727 70.8927 112.668L70.4767 112.924C70.4927 112.071 70.3274 111.439 69.9807 111.028C69.634 110.617 69.0314 110.412 68.1727 110.412C67.5807 110.412 67.0794 110.545 66.6687 110.812C66.2634 111.079 65.978 111.5 65.8127 112.076L64.6687 111.74C64.866 110.967 65.2634 110.367 65.8607 109.94C66.458 109.513 67.234 109.3 68.1887 109.3C68.978 109.3 69.6474 109.449 70.1967 109.748C70.7514 110.041 71.1434 110.468 71.3727 111.028C71.4794 111.279 71.5487 111.559 71.5807 111.868C71.6127 112.177 71.6287 112.492 71.6287 112.812V118.18H70.5807V116.012L70.8847 116.14C70.5914 116.881 70.1354 117.447 69.5167 117.836C68.898 118.225 68.1567 118.42 67.2927 118.42ZM67.4287 117.404C67.978 117.404 68.458 117.305 68.8687 117.108C69.2794 116.911 69.61 116.641 69.8607 116.3C70.1114 115.953 70.274 115.564 70.3487 115.132C70.4127 114.855 70.4474 114.551 70.4527 114.22C70.458 113.884 70.4607 113.633 70.4607 113.468L70.9087 113.7C70.5087 113.753 70.074 113.807 69.6047 113.86C69.1407 113.913 68.682 113.975 68.2287 114.044C67.7807 114.113 67.3754 114.196 67.0127 114.292C66.7674 114.361 66.53 114.46 66.3007 114.588C66.0714 114.711 65.882 114.876 65.7327 115.084C65.5887 115.292 65.5167 115.551 65.5167 115.86C65.5167 116.111 65.578 116.353 65.7007 116.588C65.8287 116.823 66.0314 117.017 66.3087 117.172C66.5914 117.327 66.9647 117.404 67.4287 117.404ZM78.2553 118.18C77.77 118.281 77.29 118.321 76.8153 118.3C76.346 118.279 75.9247 118.177 75.5513 117.996C75.1833 117.815 74.9033 117.532 74.7113 117.148C74.5567 116.828 74.4713 116.505 74.4553 116.18C74.4447 115.849 74.4393 115.473 74.4393 115.052V107.14H75.6073V115.004C75.6073 115.367 75.61 115.671 75.6153 115.916C75.626 116.156 75.682 116.369 75.7833 116.556C75.9753 116.913 76.2793 117.127 76.6953 117.196C77.1167 117.265 77.6367 117.249 78.2553 117.148V118.18ZM72.5913 110.548V109.54H78.2553V110.548H72.5913ZM79.9576 107.9V106.58H81.1336V107.9H79.9576ZM79.9576 118.18V109.54H81.1336V118.18H79.9576ZM89.612 118.18V113.772C89.612 113.292 89.5666 112.852 89.476 112.452C89.3853 112.047 89.2386 111.695 89.036 111.396C88.8386 111.092 88.58 110.857 88.26 110.692C87.9453 110.527 87.5613 110.444 87.108 110.444C86.692 110.444 86.324 110.516 86.004 110.66C85.6893 110.804 85.4226 111.012 85.204 111.284C84.9906 111.551 84.828 111.876 84.716 112.26C84.604 112.644 84.548 113.081 84.548 113.572L83.716 113.388C83.716 112.503 83.8706 111.759 84.18 111.156C84.4893 110.553 84.916 110.097 85.46 109.788C86.004 109.479 86.628 109.324 87.332 109.324C87.8493 109.324 88.3 109.404 88.684 109.564C89.0733 109.724 89.4013 109.94 89.668 110.212C89.94 110.484 90.1586 110.796 90.324 111.148C90.4893 111.495 90.6093 111.865 90.684 112.26C90.7586 112.649 90.796 113.039 90.796 113.428V118.18H89.612ZM83.364 118.18V109.54H84.428V111.668H84.548V118.18H83.364ZM96.1439 122.26C95.7013 122.26 95.2639 122.193 94.8319 122.06C94.4053 121.932 94.0106 121.727 93.6479 121.444C93.2853 121.167 92.9813 120.804 92.7359 120.356L93.7999 119.764C94.0399 120.244 94.3759 120.588 94.8079 120.796C95.2453 121.009 95.6906 121.116 96.1439 121.116C96.7679 121.116 97.2719 120.999 97.6559 120.764C98.0453 120.535 98.3279 120.193 98.5039 119.74C98.6799 119.287 98.7653 118.721 98.7599 118.044V115.74H98.8959V109.54H99.9439V118.06C99.9439 118.305 99.9359 118.54 99.9199 118.764C99.9093 118.993 99.8853 119.217 99.8479 119.436C99.7466 120.081 99.5359 120.612 99.216 121.028C98.9013 121.444 98.4853 121.753 97.9679 121.956C97.4559 122.159 96.8479 122.26 96.1439 122.26ZM96.0639 118.42C95.2586 118.42 94.5706 118.22 93.9999 117.82C93.4293 117.415 92.9919 116.868 92.6879 116.18C92.3839 115.492 92.2319 114.716 92.2319 113.852C92.2319 112.993 92.3813 112.22 92.6799 111.532C92.9839 110.844 93.4186 110.3 93.9839 109.9C94.5493 109.5 95.2266 109.3 96.0159 109.3C96.8266 109.3 97.5093 109.497 98.0639 109.892C98.6186 110.287 99.0373 110.828 99.3199 111.516C99.608 112.199 99.752 112.977 99.752 113.852C99.752 114.711 99.6106 115.487 99.328 116.18C99.0453 116.868 98.6293 117.415 98.0799 117.82C97.5306 118.22 96.8586 118.42 96.0639 118.42ZM96.1839 117.324C96.7973 117.324 97.3039 117.175 97.7039 116.876C98.1039 116.577 98.4026 116.167 98.5999 115.644C98.7973 115.116 98.8959 114.519 98.8959 113.852C98.8959 113.175 98.7973 112.577 98.5999 112.06C98.4026 111.537 98.1039 111.129 97.7039 110.836C97.3093 110.543 96.8106 110.396 96.2079 110.396C95.5893 110.396 95.0773 110.548 94.6719 110.852C94.2666 111.156 93.9653 111.569 93.7679 112.092C93.5759 112.615 93.4799 113.201 93.4799 113.852C93.4799 114.508 93.5786 115.1 93.7759 115.628C93.9786 116.151 94.2799 116.564 94.6799 116.868C95.0799 117.172 95.5813 117.324 96.1839 117.324Z" fill="#81848A"/>
</svg>
