<svg width="60" height="61" viewBox="0 0 60 61" fill="none" xmlns="http://www.w3.org/2000/svg">
<rect y="0.770508" width="60" height="60" rx="10" fill="#9CFF01"/>
<path d="M34.6291 44.5636C34.5085 44.5636 34.3871 44.553 34.2665 44.5313C30.1151 43.7841 25.9769 41.5212 22.6144 38.1587C19.2519 34.7962 16.989 30.6579 16.2417 26.5066C16.1009 25.7231 16.4292 24.9082 17.0782 24.4306C17.9092 23.8189 18.8047 23.2504 19.7393 22.7416C20.3589 22.4045 21.0893 22.3857 21.6947 22.6906C23.7641 23.7337 25.1358 25.4711 25.7716 27.8544C25.9441 28.4993 25.7905 29.1986 25.361 29.7248L23.9898 31.4027C23.7701 31.6717 23.7433 32.0427 23.9234 32.3261C25.0899 34.1615 26.6115 35.6831 28.4471 36.8493C28.73 37.0298 29.1011 37.0027 29.3705 36.7832L31.048 35.4123C31.5744 34.9825 32.2729 34.8293 32.919 35.0014C35.302 35.6375 37.0393 37.0093 38.0825 39.0787C38.3877 39.6834 38.3689 40.4142 38.0318 41.0338C37.5227 41.9683 36.9541 42.8638 36.3422 43.6949C35.9383 44.2438 35.2929 44.5636 34.6291 44.5636ZM20.777 23.7876C20.6399 23.7876 20.4985 23.8235 20.3674 23.895C19.4848 24.3755 18.6403 24.9116 17.8568 25.4882C17.608 25.6715 17.4815 25.9798 17.5345 26.2739C18.2344 30.1643 20.3683 34.0552 23.5429 37.2301C26.7179 40.4048 30.6088 42.5386 34.4991 43.2385C34.7938 43.2913 35.1015 43.1648 35.2845 42.9163C35.8614 42.1328 36.3975 41.2883 36.8783 40.4057C37.0091 40.1651 37.0211 39.8901 36.91 39.6701C36.0301 37.925 34.614 36.8128 32.5802 36.2702C32.3419 36.2069 32.0791 36.266 31.8788 36.4295L30.2015 37.8001C29.4927 38.3792 28.5041 38.4425 27.7424 37.9578C25.7435 36.6875 24.0856 35.0296 22.815 33.0306C22.3305 32.2685 22.3938 31.2801 22.9729 30.5716L24.3438 28.894C24.5071 28.694 24.5667 28.432 24.5028 28.1932C23.9602 26.1592 22.8481 24.7429 21.1033 23.8631C21.003 23.8127 20.8915 23.7876 20.777 23.7876Z" fill="black"/>
<path d="M43.1228 31.463C43.1134 31.463 43.1041 31.4627 43.0949 31.4624C42.7323 31.4473 42.4511 31.1412 42.4662 30.779C42.6064 27.4328 41.3333 24.1601 38.9734 21.7997C36.6133 19.4398 33.3475 18.1602 29.9941 18.3069C29.6453 18.3161 29.3257 18.041 29.3106 17.6782C29.2955 17.316 29.5769 17.0099 29.9391 16.9948C33.6518 16.8374 37.2825 18.2519 39.902 20.8711C42.5212 23.4903 43.934 27.1218 43.7784 30.834C43.7635 31.1868 43.4729 31.463 43.1228 31.463Z" fill="black"/>
<path d="M39.629 31.4632C39.6161 31.4632 39.6031 31.4629 39.5899 31.4621C39.2277 31.4408 38.9515 31.1301 38.9729 30.7681C39.1154 28.347 38.2165 25.9775 36.5062 24.2672C34.7959 22.5569 32.4249 21.6602 30.0052 21.8004C29.6412 21.8247 29.3326 21.5457 29.3112 21.1834C29.2898 20.8215 29.566 20.5108 29.9283 20.4894C32.7202 20.3233 35.4597 21.3632 37.4347 23.3386C39.4101 25.314 40.4487 28.0501 40.2839 30.8451C40.2634 31.1942 39.9741 31.4632 39.629 31.4632Z" fill="black"/>
<path d="M36.1391 31.4631C36.1186 31.4631 36.0981 31.4624 36.0773 31.4603C35.7161 31.4267 35.4507 31.1066 35.4844 30.7456C35.6235 29.2544 35.0968 27.7923 34.0389 26.7344C32.981 25.6767 31.52 25.1495 30.0277 25.2888C29.6669 25.3216 29.3462 25.0571 29.3129 24.696C29.2793 24.3349 29.5446 24.0149 29.9057 23.9812C31.789 23.806 33.6325 24.4709 34.9675 25.8058C36.3026 27.1408 36.9676 28.9859 36.792 30.8675C36.7604 31.2078 36.4742 31.4631 36.1391 31.4631Z" fill="black"/>
</svg>
