<svg width="60" height="61" viewBox="0 0 60 61" fill="none" xmlns="http://www.w3.org/2000/svg">
<rect y="0.770508" width="60" height="60" rx="10" fill="#9CFF01"/>
<path d="M39.5077 19.4067C36.9419 19.4067 34.7814 21.1753 34.1812 23.5575H17.1947C16.6206 23.5575 16.0782 23.7775 15.6662 24.1773L15.6649 24.1785L15.6608 24.1825C15.2347 24.599 15 25.1564 15 25.7521V39.9454C15 40.5499 15.253 41.1334 15.694 41.5463L15.6966 41.5488C16.1046 41.9301 16.6365 42.1401 17.1947 42.1401H37.899C38.4554 42.1401 38.9858 41.9315 39.393 41.5526C39.396 41.55 39.3988 41.5473 39.4017 41.5445C39.8415 41.1314 40.0936 40.5489 40.0936 39.9454V30.3603C42.8477 30.0669 45 27.7296 45 24.899C45 21.8706 42.5362 19.4067 39.5077 19.4067ZM17.1947 24.7293H34.0181C34.0164 24.7857 34.0155 24.8422 34.0155 24.899C34.0155 25.9484 34.3113 26.9299 34.8239 27.7647L27.9298 34.2816H27.1639L17.067 24.7372C17.109 24.732 17.1517 24.7293 17.1947 24.7293ZM16.1719 25.7521C16.1719 25.6754 16.1803 25.6001 16.1965 25.5271L24.4049 33.2863L16.2173 40.2482C16.1876 40.1516 16.1719 40.05 16.1719 39.9454V25.7521ZM37.899 40.9682H17.1947C17.1899 40.9682 17.1852 40.9676 17.1804 40.9675L25.2616 34.0961L26.5283 35.2934C26.6371 35.3963 26.7812 35.4535 26.9309 35.4535H28.1629C28.3126 35.4535 28.4566 35.3962 28.5654 35.2934L29.8321 34.0961L37.9139 40.9681C37.9089 40.9681 37.9039 40.9682 37.899 40.9682ZM38.9218 39.9454C38.9218 40.05 38.9064 40.1518 38.8766 40.2484L30.6887 33.2862L35.5437 28.6969C36.4169 29.6079 37.6 30.2195 38.9218 30.3603V39.9454ZM39.5077 29.2195C37.1254 29.2195 35.1873 27.2813 35.1873 24.899C35.1873 22.5167 37.1254 20.5786 39.5077 20.5786C41.89 20.5786 43.8281 22.5167 43.8281 24.899C43.8281 27.2813 41.89 29.2195 39.5077 29.2195Z" fill="#222222"/>
<path d="M39.7045 23.0225H39.0781C38.7545 23.0225 38.4922 23.2849 38.4922 23.6084C38.4922 23.932 38.7545 24.1943 39.0781 24.1943H39.1186V26.5376C39.1186 26.8611 39.3809 27.1235 39.7045 27.1235C40.0281 27.1235 40.2904 26.8611 40.2904 26.5376V23.6084C40.2904 23.2848 40.0281 23.0225 39.7045 23.0225Z" fill="#222222"/>
</svg>
