<svg width="182" height="51" viewBox="0 0 182 51" fill="none" xmlns="http://www.w3.org/2000/svg">
<rect y="0.169922" width="181.42" height="50" rx="10" fill="#9CFF01"/>
<path d="M156.425 31.7875C156.125 31.7875 155.925 31.6818 155.725 31.4706C155.325 31.0482 155.325 30.4145 155.725 29.9921L165.725 19.4311C166.125 19.0086 166.725 19.0086 167.125 19.4311C167.525 19.8535 167.525 20.4872 167.125 20.9096L157.125 31.4706C156.925 31.6818 156.725 31.7875 156.425 31.7875Z" fill="white"/>
<path d="M166.425 30.7314C165.825 30.7314 165.425 30.3089 165.425 29.6753V21.2265H157.425C156.825 21.2265 156.425 20.804 156.425 20.1704C156.425 19.5367 156.825 19.1143 157.425 19.1143H166.425C167.025 19.1143 167.425 19.5367 167.425 20.1704V29.6753C167.425 30.3089 167.025 30.7314 166.425 30.7314Z" fill="white"/>
<rect x="2" y="2.16992" width="139.42" height="46" rx="8" fill="white"/>
<path d="M23.2881 31.1699V19.6499H30.6481V21.2259H24.9601V24.4579H29.6881V26.0339H24.9601V29.5939H30.6481V31.1699H23.2881ZM31.6094 31.1699L34.8414 26.8019L31.6814 22.5299H33.6654L35.8174 25.4979L37.9454 22.5299H39.9294L36.7694 26.8019L40.0094 31.1699H38.0174L35.8174 28.1059L33.6014 31.1699H31.6094ZM45.3441 31.4099C44.5175 31.4099 43.8241 31.2099 43.2641 30.8099C42.7041 30.4046 42.2801 29.8579 41.9921 29.1699C41.7041 28.4819 41.5601 27.7059 41.5601 26.8419C41.5601 25.9779 41.7015 25.2019 41.9841 24.5139C42.2721 23.8259 42.6935 23.2846 43.2481 22.8899C43.8081 22.4899 44.4961 22.2899 45.3121 22.2899C46.1228 22.2899 46.8215 22.4899 47.4081 22.8899C48.0001 23.2846 48.4561 23.8259 48.7761 24.5139C49.0961 25.1966 49.2561 25.9726 49.2561 26.8419C49.2561 27.7059 49.0961 28.4846 48.7761 29.1779C48.4615 29.8659 48.0108 30.4099 47.4241 30.8099C46.8428 31.2099 46.1495 31.4099 45.3441 31.4099ZM41.2801 35.0099V22.5299H42.7681V28.7459H42.9601V35.0099H41.2801ZM45.1121 29.8979C45.6455 29.8979 46.0855 29.7619 46.4321 29.4899C46.7841 29.2179 47.0455 28.8526 47.2161 28.3939C47.3921 27.9299 47.4801 27.4126 47.4801 26.8419C47.4801 26.2766 47.3921 25.7646 47.2161 25.3059C47.0455 24.8473 46.7815 24.4819 46.4241 24.2099C46.0668 23.9379 45.6108 23.8019 45.0561 23.8019C44.5335 23.8019 44.1015 23.9299 43.7601 24.1859C43.4241 24.4419 43.1735 24.7993 43.0081 25.2579C42.8481 25.7166 42.7681 26.2446 42.7681 26.8419C42.7681 27.4393 42.8481 27.9673 43.0081 28.4259C43.1681 28.8846 43.4215 29.2446 43.7681 29.5059C44.1148 29.7673 44.5628 29.8979 45.1121 29.8979ZM51.1825 31.1699V19.4099H52.8545V31.1699H51.1825ZM59.0089 31.4099C58.1449 31.4099 57.3956 31.2153 56.7609 30.8259C56.1262 30.4366 55.6356 29.9006 55.2889 29.2179C54.9476 28.5299 54.7769 27.7379 54.7769 26.8419C54.7769 25.9406 54.9529 25.1486 55.3049 24.4659C55.6569 23.7779 56.1502 23.2446 56.7849 22.8659C57.4196 22.4819 58.1609 22.2899 59.0089 22.2899C59.8729 22.2899 60.6222 22.4846 61.2569 22.8739C61.8916 23.2633 62.3822 23.7993 62.7289 24.4819C63.0756 25.1646 63.2489 25.9513 63.2489 26.8419C63.2489 27.7433 63.0729 28.5379 62.7209 29.2259C62.3742 29.9086 61.8836 30.4446 61.2489 30.8339C60.6142 31.2179 59.8676 31.4099 59.0089 31.4099ZM59.0089 29.8339C59.8356 29.8339 60.4516 29.5566 60.8569 29.0019C61.2676 28.4419 61.4729 27.7219 61.4729 26.8419C61.4729 25.9406 61.2649 25.2206 60.8489 24.6819C60.4382 24.1379 59.8249 23.8659 59.0089 23.8659C58.4489 23.8659 57.9876 23.9939 57.6249 24.2499C57.2622 24.5006 56.9929 24.8499 56.8169 25.2979C56.6409 25.7406 56.5529 26.2553 56.5529 26.8419C56.5529 27.7486 56.7609 28.4739 57.1769 29.0179C57.5929 29.5619 58.2036 29.8339 59.0089 29.8339ZM65.0069 31.1699V22.5299H66.4949V24.6259L66.2869 24.3539C66.3936 24.0766 66.5322 23.8233 66.7029 23.5939C66.8736 23.3593 67.0709 23.1673 67.2949 23.0179C67.5136 22.8579 67.7562 22.7353 68.0229 22.6499C68.2949 22.5593 68.5722 22.5059 68.8549 22.4899C69.1376 22.4686 69.4096 22.4819 69.6709 22.5299V24.0979C69.3882 24.0233 69.0736 24.0019 68.7269 24.0339C68.3856 24.0659 68.0709 24.1753 67.7829 24.3619C67.5109 24.5379 67.2949 24.7513 67.1349 25.0019C66.9802 25.2526 66.8682 25.5326 66.7989 25.8419C66.7296 26.1459 66.6949 26.4686 66.6949 26.8099V31.1699H65.0069ZM74.8701 31.4099C74.0115 31.4099 73.2568 31.2233 72.6061 30.8499C71.9608 30.4713 71.4568 29.9459 71.0941 29.2739C70.7368 28.5966 70.5581 27.8126 70.5581 26.9219C70.5581 25.9779 70.7341 25.1593 71.0861 24.4659C71.4435 23.7726 71.9395 23.2366 72.5741 22.8579C73.2088 22.4793 73.9475 22.2899 74.7901 22.2899C75.6701 22.2899 76.4195 22.4953 77.0381 22.9059C77.6568 23.3113 78.1181 23.8899 78.4221 24.6419C78.7315 25.3939 78.8541 26.2873 78.7901 27.3219H77.1181V26.7139C77.1075 25.7113 76.9155 24.9699 76.5421 24.4899C76.1741 24.0099 75.6115 23.7699 74.8541 23.7699C74.0168 23.7699 73.3875 24.0339 72.9661 24.5619C72.5448 25.0899 72.3341 25.8526 72.3341 26.8499C72.3341 27.7993 72.5448 28.5353 72.9661 29.0579C73.3875 29.5753 73.9955 29.8339 74.7901 29.8339C75.3128 29.8339 75.7635 29.7166 76.1421 29.4819C76.5261 29.2419 76.8248 28.9006 77.0381 28.4579L78.6781 28.9779C78.3421 29.7513 77.8328 30.3513 77.1501 30.7779C76.4675 31.1993 75.7075 31.4099 74.8701 31.4099ZM71.7901 27.3219V26.0179H77.9581V27.3219H71.7901ZM83.7881 31.1699V19.6499H85.3001L89.4761 28.3139L93.6281 19.6499H95.1561V31.1619H93.5721V23.2819L89.8521 31.1699H89.0921L85.3641 23.2819V31.1699H83.7881ZM101.15 31.4099C100.286 31.4099 99.5362 31.2153 98.9015 30.8259C98.2668 30.4366 97.7762 29.9006 97.4295 29.2179C97.0882 28.5299 96.9175 27.7379 96.9175 26.8419C96.9175 25.9406 97.0935 25.1486 97.4455 24.4659C97.7975 23.7779 98.2908 23.2446 98.9255 22.8659C99.5602 22.4819 100.302 22.2899 101.15 22.2899C102.014 22.2899 102.763 22.4846 103.398 22.8739C104.032 23.2633 104.523 23.7993 104.87 24.4819C105.216 25.1646 105.39 25.9513 105.39 26.8419C105.39 27.7433 105.214 28.5379 104.862 29.2259C104.515 29.9086 104.024 30.4446 103.39 30.8339C102.755 31.2179 102.008 31.4099 101.15 31.4099ZM101.15 29.8339C101.976 29.8339 102.592 29.5566 102.998 29.0019C103.408 28.4419 103.614 27.7219 103.614 26.8419C103.614 25.9406 103.406 25.2206 102.99 24.6819C102.579 24.1379 101.966 23.8659 101.15 23.8659C100.59 23.8659 100.128 23.9939 99.7655 24.2499C99.4028 24.5006 99.1335 24.8499 98.9575 25.2979C98.7815 25.7406 98.6935 26.2553 98.6935 26.8419C98.6935 27.7486 98.9015 28.4739 99.3175 29.0179C99.7335 29.5619 100.344 29.8339 101.15 29.8339ZM107.148 31.1699V22.5299H108.636V24.6259L108.428 24.3539C108.534 24.0766 108.673 23.8233 108.844 23.5939C109.014 23.3593 109.212 23.1673 109.436 23.0179C109.654 22.8579 109.897 22.7353 110.164 22.6499C110.436 22.5593 110.713 22.5059 110.996 22.4899C111.278 22.4686 111.55 22.4819 111.812 22.5299V24.0979C111.529 24.0233 111.214 24.0019 110.868 24.0339C110.526 24.0659 110.212 24.1753 109.924 24.3619C109.652 24.5379 109.436 24.7513 109.276 25.0019C109.121 25.2526 109.009 25.5326 108.94 25.8419C108.87 26.1459 108.836 26.4686 108.836 26.8099V31.1699H107.148ZM117.011 31.4099C116.152 31.4099 115.397 31.2233 114.747 30.8499C114.101 30.4713 113.597 29.9459 113.235 29.2739C112.877 28.5966 112.699 27.8126 112.699 26.9219C112.699 25.9779 112.875 25.1593 113.227 24.4659C113.584 23.7726 114.08 23.2366 114.715 22.8579C115.349 22.4793 116.088 22.2899 116.931 22.2899C117.811 22.2899 118.56 22.4953 119.179 22.9059C119.797 23.3113 120.259 23.8899 120.563 24.6419C120.872 25.3939 120.995 26.2873 120.931 27.3219H119.259V26.7139C119.248 25.7113 119.056 24.9699 118.683 24.4899C118.315 24.0099 117.752 23.7699 116.995 23.7699C116.157 23.7699 115.528 24.0339 115.107 24.5619C114.685 25.0899 114.475 25.8526 114.475 26.8499C114.475 27.7993 114.685 28.5353 115.107 29.0579C115.528 29.5753 116.136 29.8339 116.931 29.8339C117.453 29.8339 117.904 29.7166 118.283 29.4819C118.667 29.2419 118.965 28.9006 119.179 28.4579L120.819 28.9779C120.483 29.7513 119.973 30.3513 119.291 30.7779C118.608 31.1993 117.848 31.4099 117.011 31.4099ZM113.931 27.3219V26.0179H120.099V27.3219H113.931Z" fill="#222222"/>
</svg>
