<svg width="139" height="38" viewBox="0 0 139 38" fill="none" xmlns="http://www.w3.org/2000/svg">
<g clip-path="url(#clip0_2065_2)">
<rect width="139" height="38" rx="10" fill="#9CFF01"/>
<path d="M122.378 22.3178C122.191 22.3178 122.066 22.2569 121.941 22.135C121.691 21.8913 121.691 21.5257 121.941 21.282L128.191 15.1891C128.441 14.9454 128.816 14.9454 129.066 15.1891C129.316 15.4328 129.316 15.7984 129.066 16.0421L122.816 22.135C122.691 22.2569 122.566 22.3178 122.378 22.3178Z" fill="white"/>
<path d="M128.628 21.7086C128.253 21.7086 128.003 21.4648 128.003 21.0993V16.2249H123.003C122.628 16.2249 122.378 15.9812 122.378 15.6156C122.378 15.2501 122.628 15.0063 123.003 15.0063H128.628C129.003 15.0063 129.253 15.2501 129.253 15.6156V21.0993C129.253 21.4648 129.003 21.7086 128.628 21.7086Z" fill="white"/>
<rect x="-12" y="-4" width="125.06" height="46" rx="8" fill="#CDC9C9"/>
<path d="M15.3018 24L18.5778 13.92H20.6848L23.9608 24H22.4418L19.4248 14.802H19.8028L16.8208 24H15.3018ZM17.0028 21.725V20.353H22.2668V21.725H17.0028ZM25.3567 24V13.71H26.8197V24H25.3567ZM29.0618 24V13.71H30.5248V24H29.0618ZM35.4296 24V13.92H36.7526L40.4066 21.501L44.0396 13.92H45.3766V23.993H43.9906V17.098L40.7356 24H40.0706L36.8086 17.098V24H35.4296ZM50.6908 24.21C49.9394 24.21 49.2791 24.0467 48.7098 23.72C48.1451 23.3887 47.7041 22.929 47.3868 22.341C47.0741 21.7483 46.9178 21.0623 46.9178 20.283C46.9178 19.457 47.0718 18.7407 47.3798 18.134C47.6924 17.5273 48.1264 17.0583 48.6818 16.727C49.2371 16.3957 49.8834 16.23 50.6208 16.23C51.3908 16.23 52.0464 16.4097 52.5878 16.769C53.1291 17.1237 53.5328 17.63 53.7988 18.288C54.0694 18.946 54.1768 19.7277 54.1208 20.633H52.6578V20.101C52.6484 19.2237 52.4804 18.575 52.1538 18.155C51.8318 17.735 51.3394 17.525 50.6768 17.525C49.9441 17.525 49.3934 17.756 49.0248 18.218C48.6561 18.68 48.4718 19.3473 48.4718 20.22C48.4718 21.0507 48.6561 21.6947 49.0248 22.152C49.3934 22.6047 49.9254 22.831 50.6208 22.831C51.0781 22.831 51.4724 22.7283 51.8038 22.523C52.1398 22.313 52.4011 22.0143 52.5878 21.627L54.0228 22.082C53.7288 22.7587 53.2831 23.2837 52.6858 23.657C52.0884 24.0257 51.4234 24.21 50.6908 24.21ZM47.9958 20.633V19.492H53.3928V20.633H47.9958ZM64.5442 24L64.5512 19.289C64.5512 18.743 64.4112 18.3183 64.1312 18.015C63.8512 17.707 63.4826 17.553 63.0252 17.553C62.7452 17.553 62.4886 17.6183 62.2552 17.749C62.0266 17.875 61.8399 18.0663 61.6952 18.323C61.5552 18.575 61.4852 18.8923 61.4852 19.275L60.7782 18.918C60.7689 18.386 60.8809 17.9193 61.1142 17.518C61.3522 17.1167 61.6742 16.8063 62.0802 16.587C62.4862 16.363 62.9412 16.251 63.4452 16.251C64.2619 16.251 64.8942 16.496 65.3422 16.986C65.7902 17.476 66.0142 18.127 66.0142 18.939L66.0072 24H64.5442ZM55.4792 24V16.44H56.7812V18.624H56.9492V24H55.4792ZM60.0152 24L60.0222 19.317C60.0222 18.7663 59.8822 18.3347 59.6022 18.022C59.3269 17.7093 58.9559 17.553 58.4892 17.553C58.0272 17.553 57.6539 17.7117 57.3692 18.029C57.0892 18.3463 56.9492 18.7617 56.9492 19.275L56.2492 18.827C56.2492 18.3323 56.3682 17.8913 56.6062 17.504C56.8442 17.1167 57.1662 16.811 57.5722 16.587C57.9782 16.363 58.4379 16.251 58.9512 16.251C59.4879 16.251 59.9452 16.3653 60.3232 16.594C60.7012 16.818 60.9882 17.133 61.1842 17.539C61.3849 17.945 61.4852 18.4163 61.4852 18.953L61.4782 24H60.0152ZM71.3809 24.21C70.6576 24.21 70.0509 24.035 69.5609 23.685C69.0709 23.3303 68.6999 22.852 68.4479 22.25C68.1959 21.648 68.0699 20.969 68.0699 20.213C68.0699 19.457 68.1936 18.778 68.4409 18.176C68.6929 17.574 69.0616 17.1003 69.5469 16.755C70.0369 16.405 70.6389 16.23 71.3529 16.23C72.0623 16.23 72.6736 16.405 73.1869 16.755C73.7049 17.1003 74.1039 17.574 74.3839 18.176C74.6639 18.7733 74.8039 19.4523 74.8039 20.213C74.8039 20.969 74.6639 21.6503 74.3839 22.257C74.1086 22.859 73.7143 23.335 73.2009 23.685C72.6923 24.035 72.0856 24.21 71.3809 24.21ZM67.8249 24V13.92H69.2949V18.561H69.1269V24H67.8249ZM71.1779 22.887C71.6446 22.887 72.0296 22.768 72.3329 22.53C72.6409 22.292 72.8696 21.9723 73.0189 21.571C73.1729 21.165 73.2499 20.7123 73.2499 20.213C73.2499 19.7183 73.1729 19.2703 73.0189 18.869C72.8696 18.4677 72.6386 18.148 72.3259 17.91C72.0133 17.672 71.6143 17.553 71.1289 17.553C70.6716 17.553 70.2936 17.665 69.9949 17.889C69.7009 18.113 69.4816 18.4257 69.3369 18.827C69.1969 19.2283 69.1269 19.6903 69.1269 20.213C69.1269 20.7357 69.1969 21.1977 69.3369 21.599C69.4769 22.0003 69.6986 22.3153 70.0019 22.544C70.3053 22.7727 70.6973 22.887 71.1779 22.887ZM79.7025 24.21C78.9512 24.21 78.2908 24.0467 77.7215 23.72C77.1568 23.3887 76.7158 22.929 76.3985 22.341C76.0858 21.7483 75.9295 21.0623 75.9295 20.283C75.9295 19.457 76.0835 18.7407 76.3915 18.134C76.7042 17.5273 77.1382 17.0583 77.6935 16.727C78.2488 16.3957 78.8952 16.23 79.6325 16.23C80.4025 16.23 81.0582 16.4097 81.5995 16.769C82.1408 17.1237 82.5445 17.63 82.8105 18.288C83.0812 18.946 83.1885 19.7277 83.1325 20.633H81.6695V20.101C81.6602 19.2237 81.4922 18.575 81.1655 18.155C80.8435 17.735 80.3512 17.525 79.6885 17.525C78.9558 17.525 78.4052 17.756 78.0365 18.218C77.6678 18.68 77.4835 19.3473 77.4835 20.22C77.4835 21.0507 77.6678 21.6947 78.0365 22.152C78.4052 22.6047 78.9372 22.831 79.6325 22.831C80.0898 22.831 80.4842 22.7283 80.8155 22.523C81.1515 22.313 81.4128 22.0143 81.5995 21.627L83.0345 22.082C82.7405 22.7587 82.2948 23.2837 81.6975 23.657C81.1002 24.0257 80.4352 24.21 79.7025 24.21ZM77.0075 20.633V19.492H82.4045V20.633H77.0075ZM84.703 24V16.44H86.005V18.274L85.823 18.036C85.9163 17.7933 86.0377 17.5717 86.187 17.371C86.3363 17.1657 86.509 16.9977 86.705 16.867C86.8963 16.727 87.1087 16.6197 87.342 16.545C87.58 16.4657 87.8227 16.419 88.07 16.405C88.3173 16.3863 88.5553 16.398 88.784 16.44V17.812C88.5367 17.7467 88.2613 17.728 87.958 17.756C87.6593 17.784 87.384 17.8797 87.132 18.043C86.894 18.197 86.705 18.3837 86.565 18.603C86.4297 18.8223 86.3317 19.0673 86.271 19.338C86.2103 19.604 86.18 19.8863 86.18 20.185V24H84.703ZM92.7346 24.203C91.8153 24.203 91.0663 24 90.4876 23.594C89.909 23.188 89.5543 22.6163 89.4236 21.879L90.9216 21.648C91.015 22.04 91.2296 22.3503 91.5656 22.579C91.9063 22.803 92.3286 22.915 92.8326 22.915C93.29 22.915 93.647 22.8217 93.9036 22.635C94.165 22.4483 94.2956 22.1917 94.2956 21.865C94.2956 21.6737 94.249 21.5197 94.1556 21.403C94.067 21.2817 93.878 21.1673 93.5886 21.06C93.2993 20.9527 92.8583 20.8197 92.2656 20.661C91.617 20.493 91.1013 20.3133 90.7186 20.122C90.3406 19.926 90.07 19.6997 89.9066 19.443C89.748 19.1817 89.6686 18.8667 89.6686 18.498C89.6686 18.0407 89.79 17.6417 90.0326 17.301C90.2753 16.9603 90.616 16.6967 91.0546 16.51C91.498 16.3233 92.016 16.23 92.6086 16.23C93.1873 16.23 93.703 16.321 94.1556 16.503C94.6083 16.685 94.9746 16.944 95.2546 17.28C95.5346 17.6113 95.7026 18.001 95.7586 18.449L94.2606 18.722C94.2093 18.358 94.039 18.071 93.7496 17.861C93.4603 17.651 93.0846 17.5367 92.6226 17.518C92.1793 17.4993 91.82 17.574 91.5446 17.742C91.2693 17.9053 91.1316 18.1317 91.1316 18.421C91.1316 18.589 91.183 18.7313 91.2856 18.848C91.393 18.9647 91.5983 19.0767 91.9016 19.184C92.205 19.2913 92.653 19.4197 93.2456 19.569C93.8803 19.7323 94.3843 19.9143 94.7576 20.115C95.131 20.311 95.397 20.5467 95.5556 20.822C95.719 21.0927 95.8006 21.4217 95.8006 21.809C95.8006 22.5557 95.5276 23.1413 94.9816 23.566C94.4403 23.9907 93.6913 24.203 92.7346 24.203Z" fill="#222222"/>
</g>
<defs>
<clipPath id="clip0_2065_2">
<rect width="139" height="38" rx="10" fill="white"/>
</clipPath>
</defs>
</svg>
