<svg width="139" height="38" viewBox="0 0 139 38" fill="none" xmlns="http://www.w3.org/2000/svg">
<g clip-path="url(#clip0_2065_2)">
<rect width="139" height="38" rx="10" fill="#9CFF01"/>
<path d="M122.378 22.3178C122.191 22.3178 122.066 22.2569 121.941 22.135C121.691 21.8913 121.691 21.5257 121.941 21.282L128.191 15.1891C128.441 14.9454 128.816 14.9454 129.066 15.1891C129.316 15.4328 129.316 15.7984 129.066 16.0421L122.816 22.135C122.691 22.2569 122.566 22.3178 122.378 22.3178Z" fill="white"/>
<path d="M128.628 21.7086C128.253 21.7086 128.003 21.4648 128.003 21.0993V16.2249H123.003C122.628 16.2249 122.378 15.9812 122.378 15.6156C122.378 15.2501 122.628 15.0063 123.003 15.0063H128.628C129.003 15.0063 129.253 15.2501 129.253 15.6156V21.0993C129.253 21.4648 129.003 21.7086 128.628 21.7086Z" fill="white"/>
<rect x="-12" y="-4" width="125.06" height="46" rx="8" fill="#CDC9C9"/>
<path d="M14.594 24V13.92H16.057V22.621H20.621V24H14.594ZM25.1625 24.21C24.4111 24.21 23.7508 24.0467 23.1815 23.72C22.6168 23.3887 22.1758 22.929 21.8585 22.341C21.5458 21.7483 21.3895 21.0623 21.3895 20.283C21.3895 19.457 21.5435 18.7407 21.8515 18.134C22.1641 17.5273 22.5981 17.0583 23.1535 16.727C23.7088 16.3957 24.3551 16.23 25.0925 16.23C25.8625 16.23 26.5181 16.4097 27.0595 16.769C27.6008 17.1237 28.0045 17.63 28.2705 18.288C28.5411 18.946 28.6485 19.7277 28.5925 20.633H27.1295V20.101C27.1201 19.2237 26.9521 18.575 26.6255 18.155C26.3035 17.735 25.8111 17.525 25.1485 17.525C24.4158 17.525 23.8651 17.756 23.4965 18.218C23.1278 18.68 22.9435 19.3473 22.9435 20.22C22.9435 21.0507 23.1278 21.6947 23.4965 22.152C23.8651 22.6047 24.3971 22.831 25.0925 22.831C25.5498 22.831 25.9441 22.7283 26.2755 22.523C26.6115 22.313 26.8728 22.0143 27.0595 21.627L28.4945 22.082C28.2005 22.7587 27.7548 23.2837 27.1575 23.657C26.5601 24.0257 25.8951 24.21 25.1625 24.21ZM22.4675 20.633V19.492H27.8645V20.633H22.4675ZM32.1613 24.21C31.6013 24.21 31.1323 24.1073 30.7543 23.902C30.3763 23.692 30.0893 23.4167 29.8933 23.076C29.7019 22.7307 29.6063 22.3527 29.6063 21.942C29.6063 21.5593 29.6739 21.2233 29.8093 20.934C29.9446 20.6447 30.1453 20.3997 30.4113 20.199C30.6773 19.9937 31.0039 19.828 31.3913 19.702C31.7273 19.604 32.1076 19.5177 32.5323 19.443C32.9569 19.3683 33.4026 19.2983 33.8693 19.233C34.3406 19.1677 34.8073 19.1023 35.2693 19.037L34.7373 19.331C34.7466 18.7383 34.6206 18.2997 34.3593 18.015C34.1026 17.7257 33.6593 17.581 33.0293 17.581C32.6326 17.581 32.2686 17.6743 31.9373 17.861C31.6059 18.043 31.3749 18.3463 31.2443 18.771L29.8793 18.351C30.0659 17.7023 30.4206 17.1867 30.9433 16.804C31.4706 16.4213 32.1706 16.23 33.0433 16.23C33.7199 16.23 34.3079 16.3467 34.8073 16.58C35.3113 16.8087 35.6799 17.1727 35.9133 17.672C36.0346 17.9193 36.1093 18.1807 36.1373 18.456C36.1653 18.7313 36.1793 19.0277 36.1793 19.345V24H34.8843V22.271L35.1363 22.495C34.8236 23.0737 34.4246 23.5053 33.9393 23.79C33.4586 24.07 32.8659 24.21 32.1613 24.21ZM32.4203 23.013C32.8356 23.013 33.1926 22.9407 33.4913 22.796C33.7899 22.6467 34.0303 22.4577 34.2123 22.229C34.3943 22.0003 34.5133 21.7623 34.5693 21.515C34.6486 21.291 34.6929 21.039 34.7023 20.759C34.7163 20.479 34.7233 20.255 34.7233 20.087L35.1993 20.262C34.7373 20.332 34.3173 20.395 33.9393 20.451C33.5613 20.507 33.2183 20.563 32.9103 20.619C32.6069 20.6703 32.3363 20.7333 32.0983 20.808C31.8976 20.878 31.7179 20.962 31.5593 21.06C31.4053 21.158 31.2816 21.277 31.1883 21.417C31.0996 21.557 31.0553 21.7273 31.0553 21.928C31.0553 22.124 31.1043 22.306 31.2023 22.474C31.3003 22.6373 31.4496 22.768 31.6503 22.866C31.8509 22.964 32.1076 23.013 32.4203 23.013ZM37.997 24V16.44H39.299V18.274L39.117 18.036C39.2103 17.7933 39.3316 17.5717 39.481 17.371C39.6303 17.1657 39.803 16.9977 39.999 16.867C40.1903 16.727 40.4026 16.6197 40.636 16.545C40.874 16.4657 41.1166 16.419 41.364 16.405C41.6113 16.3863 41.8493 16.398 42.078 16.44V17.812C41.8306 17.7467 41.5553 17.728 41.252 17.756C40.9533 17.784 40.678 17.8797 40.426 18.043C40.188 18.197 39.999 18.3837 39.859 18.603C39.7236 18.8223 39.6256 19.0673 39.565 19.338C39.5043 19.604 39.474 19.8863 39.474 20.185V24H37.997ZM48.717 24V20.283C48.717 19.989 48.6914 19.688 48.64 19.38C48.5934 19.0673 48.5 18.778 48.36 18.512C48.2247 18.246 48.031 18.0313 47.779 17.868C47.5317 17.7047 47.2074 17.623 46.806 17.623C46.5447 17.623 46.2974 17.6673 46.064 17.756C45.8307 17.84 45.6254 17.9777 45.448 18.169C45.2754 18.3603 45.1377 18.6123 45.035 18.925C44.937 19.2377 44.888 19.618 44.888 20.066L43.978 19.723C43.978 19.037 44.1064 18.4327 44.363 17.91C44.6197 17.3827 44.9884 16.972 45.469 16.678C45.9497 16.384 46.5307 16.237 47.212 16.237C47.7347 16.237 48.1734 16.321 48.528 16.489C48.8827 16.657 49.1697 16.8787 49.389 17.154C49.613 17.4247 49.7834 17.721 49.9 18.043C50.0167 18.365 50.096 18.68 50.138 18.988C50.18 19.296 50.201 19.5667 50.201 19.8V24H48.717ZM43.404 24V16.44H44.713V18.624H44.888V24H43.404ZM54.827 24V13.92H56.15L59.804 21.501L63.437 13.92H64.774V23.993H63.388V17.098L60.133 24H59.468L56.206 17.098V24H54.827ZM70.0182 24.21C69.2622 24.21 68.6066 24.0397 68.0512 23.699C67.4959 23.3583 67.0666 22.8893 66.7632 22.292C66.4646 21.69 66.3152 20.997 66.3152 20.213C66.3152 19.4243 66.4692 18.7313 66.7772 18.134C67.0852 17.532 67.5169 17.0653 68.0722 16.734C68.6276 16.398 69.2762 16.23 70.0182 16.23C70.7742 16.23 71.4299 16.4003 71.9852 16.741C72.5406 17.0817 72.9699 17.5507 73.2732 18.148C73.5766 18.7453 73.7282 19.4337 73.7282 20.213C73.7282 21.0017 73.5742 21.697 73.2662 22.299C72.9629 22.8963 72.5336 23.3653 71.9782 23.706C71.4229 24.042 70.7696 24.21 70.0182 24.21ZM70.0182 22.831C70.7416 22.831 71.2806 22.5883 71.6352 22.103C71.9946 21.613 72.1742 20.983 72.1742 20.213C72.1742 19.4243 71.9922 18.7943 71.6282 18.323C71.2689 17.847 70.7322 17.609 70.0182 17.609C69.5282 17.609 69.1246 17.721 68.8072 17.945C68.4899 18.1643 68.2542 18.47 68.1002 18.862C67.9462 19.2493 67.8692 19.6997 67.8692 20.213C67.8692 21.0063 68.0512 21.641 68.4152 22.117C68.7792 22.593 69.3136 22.831 70.0182 22.831ZM75.2665 24V16.44H76.5685V18.274L76.3865 18.036C76.4798 17.7933 76.6012 17.5717 76.7505 17.371C76.8998 17.1657 77.0725 16.9977 77.2685 16.867C77.4598 16.727 77.6722 16.6197 77.9055 16.545C78.1435 16.4657 78.3862 16.419 78.6335 16.405C78.8808 16.3863 79.1188 16.398 79.3475 16.44V17.812C79.1002 17.7467 78.8248 17.728 78.5215 17.756C78.2228 17.784 77.9475 17.8797 77.6955 18.043C77.4575 18.197 77.2685 18.3837 77.1285 18.603C76.9932 18.8223 76.8952 19.0673 76.8345 19.338C76.7738 19.604 76.7435 19.8863 76.7435 20.185V24H75.2665ZM83.8968 24.21C83.1455 24.21 82.4852 24.0467 81.9158 23.72C81.3512 23.3887 80.9102 22.929 80.5928 22.341C80.2802 21.7483 80.1238 21.0623 80.1238 20.283C80.1238 19.457 80.2778 18.7407 80.5858 18.134C80.8985 17.5273 81.3325 17.0583 81.8878 16.727C82.4432 16.3957 83.0895 16.23 83.8268 16.23C84.5968 16.23 85.2525 16.4097 85.7938 16.769C86.3352 17.1237 86.7388 17.63 87.0048 18.288C87.2755 18.946 87.3828 19.7277 87.3268 20.633H85.8638V20.101C85.8545 19.2237 85.6865 18.575 85.3598 18.155C85.0378 17.735 84.5455 17.525 83.8828 17.525C83.1502 17.525 82.5995 17.756 82.2308 18.218C81.8622 18.68 81.6778 19.3473 81.6778 20.22C81.6778 21.0507 81.8622 21.6947 82.2308 22.152C82.5995 22.6047 83.1315 22.831 83.8268 22.831C84.2842 22.831 84.6785 22.7283 85.0098 22.523C85.3458 22.313 85.6072 22.0143 85.7938 21.627L87.2288 22.082C86.9348 22.7587 86.4892 23.2837 85.8918 23.657C85.2945 24.0257 84.6295 24.21 83.8968 24.21ZM81.2018 20.633V19.492H86.5988V20.633H81.2018Z" fill="#222222"/>
</g>
<defs>
<clipPath id="clip0_2065_2">
<rect width="139" height="38" rx="10" fill="white"/>
</clipPath>
</defs>
</svg>
