<svg width="16" height="17" viewBox="0 0 16 17" fill="none" xmlns="http://www.w3.org/2000/svg">
<g clip-path="url(#clip0_1_118)">
<mask id="mask0_1_118" style="mask-type:luminance" maskUnits="userSpaceOnUse" x="0" y="0" width="16" height="17">
<path d="M16 0.826172H0V16.8262H16V0.826172Z" fill="white"/>
</mask>
<g mask="url(#mask0_1_118)">
<path d="M8 11.8262C8.59334 11.8262 9.17336 11.6502 9.66671 11.3206C10.1601 10.9909 10.5446 10.5224 10.7716 9.97422C10.9987 9.42605 11.0581 8.82285 10.9424 8.2409C10.8266 7.65896 10.5409 7.12441 10.1213 6.70485C9.70176 6.2853 9.16721 5.99957 8.58527 5.88382C8.00333 5.76806 7.40013 5.82747 6.85195 6.05454C6.30377 6.2816 5.83524 6.66612 5.50559 7.15946C5.17595 7.65281 5 8.23283 5 8.82617C5 9.62182 5.31607 10.3849 5.87868 10.9475C6.44129 11.5101 7.20435 11.8262 8 11.8262ZM8 6.82617C8.39556 6.82617 8.78224 6.94347 9.11114 7.16323C9.44004 7.383 9.69638 7.69535 9.84776 8.06081C9.99913 8.42626 10.0387 8.82839 9.96157 9.21635C9.8844 9.60432 9.69392 9.96068 9.41421 10.2404C9.13451 10.5201 8.77814 10.7106 8.39018 10.7877C8.00222 10.8649 7.60009 10.8253 7.23463 10.6739C6.86918 10.5225 6.55682 10.2662 6.33706 9.93731C6.1173 9.60842 6 9.22174 6 8.82617C6 8.29574 6.21071 7.78703 6.58579 7.41196C6.96086 7.03689 7.46957 6.82617 8 6.82617Z" fill="#9CFF01"/>
<path d="M2.28491 9.23617L1.49991 9.70117C1.17703 9.89276 0.943171 10.2044 0.849471 10.5679C0.755771 10.9315 0.809859 11.3174 0.999906 11.6412L2.07991 13.5112C2.27149 13.834 2.58315 14.0679 2.9467 14.1616C3.31026 14.2553 3.69612 14.2012 4.01991 14.0112L4.79991 13.5612C4.87525 13.521 4.95962 13.5008 5.04497 13.5025C5.13033 13.5042 5.21383 13.5277 5.28752 13.5708C5.3612 13.614 5.42263 13.6752 5.46593 13.7488C5.50924 13.8224 5.53298 13.9058 5.53491 13.9912V14.8862C5.53083 15.2598 5.67371 15.6202 5.93277 15.8895C6.19183 16.1589 6.54634 16.3157 6.91991 16.3262H9.07991C9.45611 16.3248 9.81652 16.1748 10.0825 15.9088C10.3486 15.6428 10.4986 15.2824 10.4999 14.9062V14.0062C10.5021 13.9206 10.5263 13.8371 10.5701 13.7635C10.6139 13.69 10.6758 13.6289 10.7499 13.5862C10.8259 13.5423 10.9121 13.5192 10.9999 13.5192C11.0877 13.5192 11.1739 13.5423 11.2499 13.5862L12.0249 14.0312C12.3487 14.2212 12.7346 14.2753 13.0981 14.1816C13.4617 14.0879 13.7733 13.854 13.9649 13.5312L15.0449 11.6612C15.235 11.3374 15.289 10.9515 15.1953 10.5879C15.1016 10.2244 14.8678 9.91276 14.5449 9.72117L13.7449 9.25617C13.6789 9.21009 13.625 9.14876 13.5878 9.07737C13.5505 9.00599 13.5311 8.92668 13.5311 8.84617C13.5311 8.76567 13.5505 8.68635 13.5878 8.61497C13.625 8.54359 13.6789 8.48225 13.7449 8.43617L14.5449 7.97117C14.8678 7.77959 15.1016 7.46793 15.1953 7.10438C15.289 6.74082 15.235 6.35495 15.0449 6.03117L13.9549 4.14117C13.7633 3.8183 13.4517 3.58444 13.0881 3.49074C12.7246 3.39704 12.3387 3.45113 12.0149 3.64117L11.2399 4.08617C11.1633 4.1281 11.077 4.14923 10.9897 4.14746C10.9024 4.14568 10.817 4.12106 10.7422 4.07605C10.6673 4.03104 10.6056 3.96721 10.5631 3.89091C10.5206 3.81461 10.4988 3.72851 10.4999 3.64117V2.74617C10.4986 2.36997 10.3486 2.00955 10.0825 1.74354C9.81652 1.47752 9.45611 1.32749 9.07991 1.32617H6.91991C6.5437 1.32749 6.18329 1.47752 5.91727 1.74354C5.65125 2.00955 5.50122 2.36997 5.49991 2.74617V3.64617C5.49715 3.7311 5.47281 3.81392 5.42916 3.88682C5.38551 3.95972 5.32401 4.02029 5.25045 4.06283C5.1769 4.10536 5.09372 4.12844 5.00876 4.1299C4.92381 4.13137 4.83988 4.11115 4.76491 4.07117L3.99991 3.62117C3.67612 3.43113 3.29026 3.37704 2.9267 3.47074C2.56315 3.56444 2.25149 3.7983 2.05991 4.12117L0.964906 6.01117C0.774859 6.33495 0.720771 6.72082 0.814471 7.08438C0.908171 7.44793 1.14203 7.75959 1.46491 7.95117L2.26491 8.41617C2.33092 8.46225 2.38483 8.52359 2.42206 8.59497C2.45928 8.66635 2.47872 8.74567 2.47872 8.82617C2.47872 8.90668 2.45928 8.98599 2.42206 9.05737C2.38483 9.12876 2.33092 9.19009 2.26491 9.23617H2.28491ZM2.78491 7.54617L1.99991 7.08617C1.90388 7.02975 1.83384 6.93789 1.80486 6.83036C1.77587 6.72283 1.79025 6.60821 1.84491 6.51117L2.90991 4.64117C2.93785 4.59162 2.97545 4.54818 3.0205 4.51343C3.06554 4.47868 3.1171 4.45332 3.17212 4.43887C3.22714 4.42441 3.2845 4.42115 3.34081 4.42928C3.39711 4.4374 3.45122 4.45675 3.49991 4.48617L4.27991 4.93617C4.50642 5.06016 4.7611 5.12357 5.0193 5.12027C5.27751 5.11697 5.53049 5.04707 5.75375 4.91733C5.97702 4.78759 6.16302 4.60242 6.29373 4.37972C6.42445 4.15703 6.49547 3.90436 6.49991 3.64617V2.74617C6.5012 2.63518 6.54587 2.52911 6.62436 2.45062C6.70284 2.37214 6.80892 2.32747 6.91991 2.32617H9.07991C9.19089 2.32747 9.29697 2.37214 9.37545 2.45062C9.45394 2.52911 9.49861 2.63518 9.49991 2.74617V3.64117C9.5016 3.90267 9.57164 4.15919 9.70306 4.38527C9.83448 4.61135 10.0227 4.79915 10.2491 4.93003C10.4755 5.06092 10.7322 5.13034 10.9937 5.13142C11.2552 5.13249 11.5124 5.06519 11.7399 4.93617L12.4999 4.48617C12.5969 4.43152 12.7116 4.41713 12.8191 4.44612C12.9266 4.47511 13.0185 4.54515 13.0749 4.64117L14.1549 6.51117C14.2096 6.60821 14.2239 6.72283 14.195 6.83036C14.166 6.93789 14.0959 7.02975 13.9999 7.08617L13.1999 7.54617C12.9806 7.68016 12.7994 7.86823 12.6737 8.09237C12.548 8.31651 12.482 8.56919 12.482 8.82617C12.482 9.08316 12.548 9.33584 12.6737 9.55997C12.7994 9.78411 12.9806 9.97219 13.1999 10.1062L13.9999 10.5662C14.0959 10.6226 14.166 10.7144 14.195 10.822C14.2239 10.9295 14.2096 11.0441 14.1549 11.1412L13.0749 13.0112C13.0185 13.1072 12.9266 13.1772 12.8191 13.2062C12.7116 13.2352 12.5969 13.2208 12.4999 13.1662L11.7249 12.7162C11.4969 12.5845 11.2382 12.5152 10.9749 12.5152C10.7116 12.5152 10.4529 12.5845 10.2249 12.7162C10.0008 12.8479 9.81561 13.0367 9.68825 13.2633C9.56089 13.4899 9.4959 13.7462 9.49991 14.0062V14.9062C9.49861 15.0171 9.45394 15.1232 9.37545 15.2017C9.29697 15.2802 9.19089 15.3249 9.07991 15.3262H6.91991C6.80892 15.3249 6.70284 15.2802 6.62436 15.2017C6.54587 15.1232 6.5012 15.0171 6.49991 14.9062V14.0112C6.49991 13.6133 6.34187 13.2318 6.06057 12.9505C5.77926 12.6692 5.39773 12.5112 4.99991 12.5112C4.7398 12.5105 4.48426 12.5795 4.25991 12.7112L3.49991 13.1662C3.40287 13.2208 3.28825 13.2352 3.18072 13.2062C3.07318 13.1772 2.98133 13.1072 2.92491 13.0112L1.82991 11.1412C1.77647 11.0423 1.76436 10.9263 1.79622 10.8186C1.82808 10.7108 1.90131 10.6201 1.99991 10.5662L2.79991 10.1062C3.0192 9.97219 3.2004 9.78411 3.32611 9.55997C3.45183 9.33584 3.51786 9.08316 3.51786 8.82617C3.51786 8.56919 3.45183 8.31651 3.32611 8.09237C3.2004 7.86823 3.0192 7.68016 2.79991 7.54617H2.78491Z" fill="#9CFF01"/>
</g>
</g>
<defs>
<clipPath id="clip0_1_118">
<rect width="16" height="16" fill="white" transform="translate(0 0.77002)"/>
</clipPath>
</defs>
</svg>
