<svg width="37" height="21" viewBox="0 0 37 21" fill="none" xmlns="http://www.w3.org/2000/svg">
<g clip-path="url(#clip0_2053_2)">
<rect y="0.75" width="37" height="20" rx="8" fill="#F5F5F5"/>
<path d="M14.2189 10.689C14.0923 10.5624 14.0501 10.4358 14.0501 10.267C14.0501 9.92942 14.3033 9.67623 14.6409 9.67623L23.0807 9.67622C23.4183 9.67622 23.6715 9.92942 23.6715 10.267C23.6715 10.6046 23.4183 10.8578 23.0807 10.8578L14.6409 10.8578C14.4721 10.8578 14.3455 10.8156 14.2189 10.689Z" fill="#222222"/>
<path d="M18.8607 14.487C18.6075 14.2339 18.6075 13.8963 18.8607 13.6431L22.2366 10.2671L18.8607 6.89121C18.6075 6.63802 18.6075 6.30043 18.8607 6.04723C19.1139 5.79404 19.4515 5.79404 19.7047 6.04723L23.5026 9.84515C23.7558 10.0983 23.7558 10.4359 23.5026 10.6891L19.7047 14.487C19.4515 14.7402 19.1139 14.7402 18.8607 14.487Z" fill="#222222"/>
</g>
<defs>
<clipPath id="clip0_2053_2">
<rect y="0.75" width="37" height="20" rx="8" fill="white"/>
</clipPath>
</defs>
</svg>
